<?xml version="1.0" encoding="UTF-8" standalone="no"?>
<!-- Created with Inkscape (http://www.inkscape.org/) -->

<svg
   xmlns:dc="http://purl.org/dc/elements/1.1/"
   xmlns:cc="http://creativecommons.org/ns#"
   xmlns:rdf="http://www.w3.org/1999/02/22-rdf-syntax-ns#"
   xmlns:svg="http://www.w3.org/2000/svg"
   xmlns="http://www.w3.org/2000/svg"
   xmlns:sodipodi="http://sodipodi.sourceforge.net/DTD/sodipodi-0.dtd"
   xmlns:inkscape="http://www.inkscape.org/namespaces/inkscape"
   width="542.412536904"
   height="184.361520423"
   viewBox="0 0 594.97975 202.22867"
   id="svg2"
   version="1.1"
   inkscape:version="0.91 r13725"
   sodipodi:docname="logo vector.svg">
  <defs
     id="defs4">
    <clipPath
       id="clipPath4152"
       clipPathUnits="userSpaceOnUse">
      <path
         inkscape:connector-curvature="0"
         id="path4154"
         d="m 297.639,623.621 -297.638,0 0,-623.62 297.638,0 0,623.62 z" />
    </clipPath>
    <clipPath
       id="clipPath4168"
       clipPathUnits="userSpaceOnUse">
      <path
         inkscape:connector-curvature="0"
         id="path4170"
         d="m 0,0 297.638,0 0,623.622 L 0,623.622 0,0 Z" />
    </clipPath>
    <clipPath
       id="clipPath4176"
       clipPathUnits="userSpaceOnUse">
      <path
         inkscape:connector-curvature="0"
         id="path4178"
         d="m 146.452,465.882 187.67,0 0,-384.0694 -187.67,0 0,384.0694 z" />
    </clipPath>
    <clipPath
       id="clipPath4180"
       clipPathUnits="userSpaceOnUse">
      <path
         inkscape:connector-curvature="0"
         id="path4182"
         d="m 147.452,82.813 185.669,0 0,381.622 -185.669,0 0,-381.622 z" />
    </clipPath>
    <clipPath
       id="clipPath4202"
       clipPathUnits="userSpaceOnUse">
      <path
         inkscape:connector-curvature="0"
         id="path4204"
         d="m 0,82.813 148.161,0 0,381.622 L 0,464.435 0,82.813 Z" />
    </clipPath>
    <clipPath
       id="clipPath4214"
       clipPathUnits="userSpaceOnUse">
      <path
         inkscape:connector-curvature="0"
         id="path4216"
         d="m 0,0 297.638,0 0,623.622 L 0,623.622 0,0 Z" />
    </clipPath>
    <clipPath
       id="clipPath4410"
       clipPathUnits="userSpaceOnUse">
      <path
         inkscape:connector-curvature="0"
         id="path4412"
         d="m 233.898,556.125 43.049,0 0,54.401 -43.049,0 0,-54.401 z" />
    </clipPath>
    <clipPath
       id="clipPath4718"
       clipPathUnits="userSpaceOnUse">
      <path
         inkscape:connector-curvature="0"
         id="path4720"
         d="m 0,0 297.638,0 0,623.622 L 0,623.622 0,0 Z" />
    </clipPath>
    <clipPath
       id="clipPath4758"
       clipPathUnits="userSpaceOnUse">
      <path
         inkscape:connector-curvature="0"
         id="path4760"
         d="m -20.8425,525.126 288.2995,0 0,-19.008 -288.2995,0 0,19.008 z" />
    </clipPath>
    <clipPath
       id="clipPath4762"
       clipPathUnits="userSpaceOnUse">
      <path
         inkscape:connector-curvature="0"
         id="path4764"
         d="m 266.457,524.125 -267.286,0 0,-17.008 267.286,0 0,17.008 z" />
    </clipPath>
    <clipPath
       id="clipPath4786"
       clipPathUnits="userSpaceOnUse">
      <path
         inkscape:connector-curvature="0"
         id="path4788"
         d="m 42.937,504.15 276.252,0 0,-19.008 -276.252,0 0,19.008 z" />
    </clipPath>
    <clipPath
       id="clipPath4790"
       clipPathUnits="userSpaceOnUse">
      <path
         inkscape:connector-curvature="0"
         id="path4792"
         d="m 318.189,503.149 -274.253,0 0,-17.008 274.253,0 0,17.008 z" />
    </clipPath>
    <clipPath
       id="clipPath4824"
       clipPathUnits="userSpaceOnUse">
      <path
         inkscape:connector-curvature="0"
         id="path4826"
         d="m 615.119,623.621 -297.638,0 0,-623.62 297.638,0 0,623.62 z" />
    </clipPath>
    <clipPath
       id="clipPath4840"
       clipPathUnits="userSpaceOnUse">
      <path
         inkscape:connector-curvature="0"
         id="path4842"
         d="m 317.48,0 297.638,0 0,623.622 -297.638,0 0,-623.622 z" />
    </clipPath>
    <clipPath
       id="clipPath4848"
       clipPathUnits="userSpaceOnUse">
      <path
         inkscape:connector-curvature="0"
         id="path4850"
         d="m 283.173,465.882 187.67,0 0,-384.0694 -187.67,0 0,384.0694 z" />
    </clipPath>
    <clipPath
       id="clipPath4852"
       clipPathUnits="userSpaceOnUse">
      <path
         inkscape:connector-curvature="0"
         id="path4854"
         d="m 284.173,82.813 185.669,0 0,381.622 -185.669,0 0,-381.622 z" />
    </clipPath>
    <clipPath
       id="clipPath4874"
       clipPathUnits="userSpaceOnUse">
      <path
         inkscape:connector-curvature="0"
         id="path4876"
         d="m 469.134,82.813 145.984,0 0,381.622 -145.984,0 0,-381.622 z" />
    </clipPath>
    <clipPath
       id="clipPath4886"
       clipPathUnits="userSpaceOnUse">
      <path
         inkscape:connector-curvature="0"
         id="path4888"
         d="m 317.48,0 297.638,0 0,623.622 -297.638,0 0,-623.622 z" />
    </clipPath>
    <clipPath
       id="clipPath4934"
       clipPathUnits="userSpaceOnUse">
      <path
         inkscape:connector-curvature="0"
         id="path4936"
         d="m 551.378,556.125 43.05,0 0,54.401 -43.05,0 0,-54.401 z" />
    </clipPath>
    <clipPath
       id="clipPath5242"
       clipPathUnits="userSpaceOnUse">
      <path
         inkscape:connector-curvature="0"
         id="path5244"
         d="m 317.48,0 297.638,0 0,623.622 -297.638,0 0,-623.622 z" />
    </clipPath>
    <clipPath
       id="clipPath5438"
       clipPathUnits="userSpaceOnUse">
      <path
         inkscape:connector-curvature="0"
         id="path5440"
         d="m 371.047,525.126 297.512,0 0,-19.008 -297.512,0 0,19.008 z" />
    </clipPath>
    <clipPath
       id="clipPath5442"
       clipPathUnits="userSpaceOnUse">
      <path
         inkscape:connector-curvature="0"
         id="path5444"
         d="m 616.444,524.125 -244.397,0 0,-17.008 244.397,0 0,17.008 z" />
    </clipPath>
    <clipPath
       id="clipPath5466"
       clipPathUnits="userSpaceOnUse">
      <path
         inkscape:connector-curvature="0"
         id="path5468"
         d="m 260.496,504.15 301.055,0 0,-19.008 -301.055,0 0,19.008 z" />
    </clipPath>
    <clipPath
       id="clipPath5470"
       clipPathUnits="userSpaceOnUse">
      <path
         inkscape:connector-curvature="0"
         id="path5472"
         d="m 560.552,503.149 -288.482,0 0,-17.008 288.482,0 0,17.008 z" />
    </clipPath>
  </defs>
  <sodipodi:namedview
     id="base"
     pagecolor="#ffffff"
     bordercolor="#666666"
     borderopacity="1.0"
     inkscape:pageopacity="0.0"
     inkscape:pageshadow="2"
     inkscape:zoom="1"
     inkscape:cx="276.43714"
     inkscape:cy="125.5193"
     inkscape:document-units="px"
     inkscape:current-layer="layer1"
     showgrid="false"
     fit-margin-top="0"
     fit-margin-left="0"
     fit-margin-right="0"
     fit-margin-bottom="0"
     inkscape:window-width="1920"
     inkscape:window-height="1017"
     inkscape:window-x="-8"
     inkscape:window-y="-8"
     inkscape:window-maximized="1" />
  <metadata
     id="metadata7">
    <rdf:RDF>
      <cc:Work
         rdf:about="">
        <dc:format>image/svg+xml</dc:format>
        <dc:type
           rdf:resource="http://purl.org/dc/dcmitype/StillImage" />
        <dc:title></dc:title>
      </cc:Work>
    </rdf:RDF>
  </metadata>
  <g
     inkscape:label="Calque 1"
     inkscape:groupmode="layer"
     id="layer1"
     transform="translate(198.50425,190.1232)">
    <g
       id="g4658"
       transform="matrix(4.0740123,0,0,-4.0740123,301.15381,154.6898)" />
    <g
       id="g4670"
       transform="matrix(4.0740123,0,0,-4.0740123,-39.969354,-89.953825)">
      <path
         d="m 0,0 -4.162,0 -0.272,0.37 -0.583,-0.788 0.34,-0.486 0.418,0 0,-3.88 3.939,0 0,3.87 0.232,0.097 L 0,0 Z m -1.079,-3.947 -2.421,0 0,3.043 2.421,0 0,-3.043 z m 2.305,4.317 1.127,-0.554 0,-2.441 -0.758,0 0,1.876 -0.866,0.447 0.497,0.672 z M 3.461,2.995 4.22,3.316 4.22,0.02 7.059,0 7.283,-0.593 5.396,-4.872 l -0.68,0.321 1.643,3.657 -2.898,0 0,3.889 z M 13.147,0.37 11.853,-3.034 9.9,-3.773 9.773,-3.326 11.766,-0.204 11.261,0.37 9.52,-2.382 8.761,0.37 l -0.67,-0.535 1.293,-4.707 3.043,1.119 1.294,3.549 -0.574,0.574 z m 1.711,0 1.128,-0.554 0,-4.6 -0.758,0 0,4.006 -0.866,0.476 0.496,0.672 z m 2.393,-1.274 -0.341,0.486 0.584,0.788 0.272,-0.37 2.703,0 0,-4.784 -0.759,0 0,3.88 -2.459,0 z m 4.687,1.274 1.127,-0.554 0,-2.441 -0.759,0 0,1.876 -0.865,0.447 0.497,0.672 z m 2.683,0 0.272,-0.37 2.412,0 0,-3.821 0.651,0.029 0,-0.865 -4.171,-0.175 0,0.865 2.761,0.117 0,2.946 -2.168,0 -0.341,0.486 0.584,0.788 z m 7.05,-1.274 0.419,0 0.106,-2.956 -1.1,-0.147 0,-0.865 1.907,0.215 -0.155,3.753 2.275,0 0,-3.88 0.758,0 0,3.87 0.234,0.097 L 36.202,0 32.186,0 31.914,0.37 31.33,-0.418 31.671,-0.904 Z m 5.775,1.274 1.129,-0.554 0,-2.441 -0.758,0 0,1.876 -0.866,0.447 0.495,0.672 z m 2.325,-1.274 -0.341,0.486 0.584,0.788 0.272,-0.37 2.704,0 0,-4.784 -0.759,0 0,3.88 -2.46,0 z M 44.74,0.37 45.012,0 l 2.412,0 0,-3.821 0.652,0.029 0,-0.865 -4.172,-0.175 0,0.865 2.761,0.117 0,2.946 -2.168,0 -0.341,0.486 0.584,0.788 z m 8.479,-0.136 -0.836,-0.263 -0.574,-3.607 -1.031,-0.146 -0.69,4.074 -0.749,-0.438 0.672,-3.753 -1.401,-0.195 0,-0.865 3.841,0.545 0.768,4.648 z m 1.108,-1.138 3.103,0 0,-3.88 0.758,0 0,3.87 0.234,0.097 0.087,0.817 -3.667,0 -0.272,0.37 -0.583,-0.788 0.34,-0.486 z m 0.73,-0.943 0,-2.937 -0.759,0 0,2.645 0.759,0.292 z m 7.263,0.943 3.103,0 0,-3.88 0.758,0 0,3.87 0.233,0.097 L 66.502,0 62.836,0 62.563,0.37 61.98,-0.418 62.32,-0.904 Z m 0.73,-0.943 0,-2.937 -0.759,0 0,2.645 0.759,0.292 z m 4.385,1.682 0.389,-4.707 3.53,0.516 0.545,4.356 -2.169,0 -0.428,-0.904 1.701,0 -0.339,-2.684 -2.13,-0.282 -0.341,4.269 -0.758,-0.564 z m 5.62,0.535 1.128,-0.554 0,-2.441 -0.758,0 0,1.876 -0.865,0.447 0.495,0.672 z M 75.866,0 l 4.054,0 -0.728,-4.434 -3.2,-0.438 -0.476,3.968 -0.205,0 -0.272,0.486 L 75.623,0.37 75.866,0 Z m 2.684,-3.656 0.437,2.752 -2.684,0 0.322,-2.966 1.925,0.214 z M 81,-0.904 80.659,-0.418 81.243,0.37 81.516,0 l 2.703,0 0,-4.784 -0.759,0 0,3.88 -2.46,0 z M 85.969,0.37 86.242,0 l 2.412,0 0,-3.821 0.651,0.029 0,-0.865 -4.172,-0.175 0,0.865 2.761,0.117 0,2.946 -2.168,0 -0.341,0.486 0.584,0.788 z m 4.007,0 1.127,-0.554 0,-2.441 -0.758,0 0,1.876 -0.865,0.447 0.496,0.672 z m 3.937,-0.554 0,-4.347 -2.246,-0.458 0,0.866 1.487,0.331 0,3.014 -0.864,0.476 0.496,0.672 1.127,-0.554 z m 1.294,0.554 1.128,-0.554 0,-4.6 -0.759,0 0,4.006 -0.865,0.476 0.496,0.672 z m 5.922,-3.229 0.487,2.859 -0.808,0 -0.379,-2.032 -1.906,2.285 -0.536,-0.301 -0.709,-4.736 0.768,0 0.545,3.627 3.189,-3.715 0.359,0.798 -1.01,1.215 z m 1.817,1.955 3.103,0 0,-3.88 0.758,0 0,3.87 0.234,0.097 0.088,0.817 -3.666,0 -0.274,0.37 -0.582,-0.788 0.339,-0.486 z m 0.73,-0.943 0,-2.937 -0.759,0 0,2.645 0.759,0.292 z"
         style="fill:#231f20;fill-opacity:1;fill-rule:nonzero;stroke:none"
         id="path4672"
         inkscape:connector-curvature="0" />
    </g>
    <g
       id="g4674"
       transform="matrix(4.0740123,0,0,-4.0740123,-48.728481,-50.891381)">
      <path
         d="m 0,0 0,0.583 -3.04,0 0,-0.583 1.171,0 0,-3.692 0.69,0 0,3.692 L 0,0 Z m 3.933,-3.692 0,4.275 -0.685,0 0,-1.768 -2.019,0 0,1.768 -0.691,0 0,-4.275 0.691,0 0,1.919 2.019,0 0,-1.919 0.685,0 z m 3.368,0 0,0.589 -1.565,0 0,1.33 1.489,0 0,0.564 -1.489,0 0,1.216 1.565,0 0,0.576 -2.255,0 0,-4.275 2.255,0 z m 5.674,0 0,4.275 -0.684,0 0,-1.768 -2.02,0 0,1.768 -0.691,0 0,-4.275 0.691,0 0,1.919 2.02,0 0,-1.919 0.684,0 z m 3.367,0 0,0.589 -1.563,0 0,1.33 1.488,0 0,0.564 -1.488,0 0,1.216 1.563,0 0,0.576 -2.253,0 0,-4.275 2.253,0 z m 3.744,1.292 c 0,0.443 -0.261,0.867 -0.817,0.975 l 0,0.013 c 0.437,0.152 0.728,0.538 0.728,0.975 0,0.659 -0.482,1.039 -1.413,1.039 -0.519,0 -1.006,-0.013 -1.342,-0.019 l 0,-4.275 c 0.475,-0.006 0.905,-0.019 1.165,-0.019 1.312,0 1.679,0.753 1.679,1.311 m -0.811,1.856 c 0,-0.431 -0.335,-0.691 -0.976,-0.691 -0.145,0 -0.253,0 -0.367,0.006 l 0,1.267 c 0.165,0.006 0.348,0.013 0.539,0.013 0.608,0 0.804,-0.247 0.804,-0.595 m 0.082,-1.869 c 0,-0.431 -0.298,-0.735 -0.925,-0.735 -0.222,0 -0.392,0.013 -0.5,0.032 l 0,1.362 c 0.095,0.006 0.317,0.006 0.386,0.006 0.602,0 1.039,-0.177 1.039,-0.665 m 4.489,-1.279 -1.128,1.488 c -0.107,0.139 -0.24,0.304 -0.36,0.456 0.696,0.076 1.209,0.513 1.209,1.197 0,0.849 -0.607,1.159 -1.495,1.159 -0.481,0 -0.835,-0.006 -1.146,-0.025 l 0,-4.275 0.69,0 0,1.849 0.032,0 1.33,-1.849 0.868,0 z m -1.001,3.065 c 0,-0.424 -0.335,-0.709 -0.893,-0.709 -0.152,0 -0.272,0.006 -0.336,0.013 l 0,1.355 c 0.102,0.006 0.229,0.012 0.362,0.012 0.575,0 0.867,-0.202 0.867,-0.671 m 3.932,-3.065 0,0.589 -1.564,0 0,1.33 1.488,0 0,0.564 -1.488,0 0,1.216 1.564,0 0,0.576 -2.254,0 0,-4.275 2.254,0 z m 6.193,4.275 -0.69,0 -0.665,-2.672 c -0.063,-0.235 -0.107,-0.482 -0.152,-0.749 l -0.007,0 c -0.044,0.273 -0.107,0.558 -0.171,0.786 l -0.747,2.635 -0.754,0 -0.728,-2.628 C 28.98,-2.305 28.93,-2.577 28.885,-2.856 l -0.006,0 c -0.038,0.285 -0.088,0.557 -0.164,0.842 l -0.659,2.597 -0.735,0 1.108,-4.275 0.811,0 0.722,2.653 c 0.069,0.266 0.12,0.526 0.151,0.792 l 0.007,0 c 0.045,-0.272 0.089,-0.545 0.165,-0.804 l 0.728,-2.641 0.849,0 1.108,4.275 z m 5.427,-2.628 0,2.628 -0.678,0 0,-2.679 c 0,-0.798 -0.316,-1.089 -1.013,-1.089 -0.791,0 -0.981,0.43 -0.981,1 l 0,2.768 -0.691,0 0,-2.818 c 0,-0.786 0.285,-1.52 1.629,-1.52 1.12,0 1.734,0.57 1.734,1.71 m 4.546,-1.647 0,4.275 -0.671,0 0,-1.267 c 0,-0.627 0.019,-1.545 0.045,-2.032 -0.158,0.31 -0.33,0.651 -0.519,0.968 l -1.412,2.331 -0.907,0 0,-4.275 0.672,0 0,1.438 c 0,0.608 -0.013,1.475 -0.038,1.893 0.132,-0.285 0.285,-0.589 0.475,-0.899 l 1.462,-2.432 0.893,0 z m 1.804,4.275 -0.69,0 0,-4.275 0.69,0 0,4.275 z m 4.351,0 -0.71,0 -0.918,-2.591 c -0.127,-0.348 -0.203,-0.614 -0.279,-0.911 l -0.007,0 c -0.082,0.316 -0.183,0.62 -0.272,0.867 l -0.899,2.635 -0.76,0 1.52,-4.275 0.786,0 1.539,4.275 z m 2.76,-4.275 0,0.589 -1.565,0 0,1.33 1.49,0 0,0.564 -1.49,0 0,1.216 1.565,0 0,0.576 -2.255,0 0,-4.275 2.255,0 z m 3.819,0 -1.128,1.488 c -0.107,0.139 -0.241,0.304 -0.361,0.456 0.697,0.076 1.21,0.513 1.21,1.197 0,0.849 -0.608,1.159 -1.494,1.159 -0.482,0 -0.836,-0.006 -1.147,-0.025 l 0,-4.275 0.69,0 0,1.849 0.032,0 1.33,-1.849 0.868,0 z m -1.001,3.065 c 0,-0.424 -0.335,-0.709 -0.893,-0.709 -0.151,0 -0.272,0.006 -0.336,0.013 l 0,1.355 c 0.101,0.006 0.229,0.012 0.361,0.012 0.576,0 0.868,-0.202 0.868,-0.671 M 58.671,-2.4 c 0,1.336 -1.868,1.019 -1.868,1.874 0,0.355 0.272,0.602 0.804,0.602 0.253,0 0.525,-0.044 0.773,-0.12 l 0.038,0.614 c -0.26,0.044 -0.52,0.076 -0.773,0.076 -0.994,0 -1.571,-0.513 -1.571,-1.248 0,-1.38 1.869,-1 1.869,-1.9 0,-0.462 -0.381,-0.658 -0.849,-0.658 -0.31,0 -0.646,0.069 -0.887,0.158 L 56.17,-3.654 c 0.246,-0.064 0.55,-0.101 0.861,-0.101 1.019,0 1.64,0.57 1.64,1.355 m 1.482,2.983 -0.69,0 0,-4.275 0.69,0 0,4.275 z M 63.737,0 l 0,0.583 -3.039,0 0,-0.583 1.17,0 0,-3.692 0.692,0 0,3.692 1.177,0 z m 3.534,0.583 -0.728,0 -0.602,-1.273 c -0.133,-0.272 -0.26,-0.545 -0.354,-0.798 l -0.013,0 c -0.089,0.228 -0.19,0.468 -0.304,0.722 l -0.634,1.349 -0.754,0 1.337,-2.749 0,-1.526 0.69,0 0,1.526 1.362,2.749 z m 5.642,-2.084 c 0,1.432 -0.772,2.147 -1.925,2.147 -1.127,0 -2.051,-0.83 -2.051,-2.248 0,-1.311 0.626,-2.153 1.925,-2.153 1.133,0 2.051,0.836 2.051,2.254 M 72.179,-1.57 c 0,-1.064 -0.634,-1.571 -1.267,-1.571 -0.843,0 -1.24,0.652 -1.24,1.621 0,1.026 0.595,1.558 1.253,1.558 0.798,0 1.254,-0.576 1.254,-1.608 m 3.699,1.57 0,0.583 -2.23,0 0,-4.275 0.691,0 0,1.874 1.456,0 0,0.564 -1.456,0 0,1.254 1.539,0 z m 3.223,-2.539 0,3.122 -0.691,0 0,-3.091 c 0,-0.519 -0.176,-0.652 -0.5,-0.652 -0.152,0 -0.304,0.031 -0.412,0.069 l 0,-0.601 c 0.134,-0.026 0.292,-0.051 0.495,-0.051 0.823,0 1.108,0.494 1.108,1.204 m 3.337,-1.153 0,0.589 -1.565,0 0,1.33 1.488,0 0,0.564 -1.488,0 0,1.216 1.565,0 0,0.576 -2.256,0 0,-4.275 2.256,0 z m 3.819,0 -1.128,1.488 c -0.107,0.139 -0.24,0.304 -0.361,0.456 0.696,0.076 1.21,0.513 1.21,1.197 0,0.849 -0.608,1.159 -1.494,1.159 -0.482,0 -0.837,-0.006 -1.148,-0.025 l 0,-4.275 0.691,0 0,1.849 0.031,0 1.331,-1.849 0.868,0 z m -1.001,3.065 c 0,-0.424 -0.336,-0.709 -0.893,-0.709 -0.152,0 -0.273,0.006 -0.336,0.013 l 0,1.355 c 0.101,0.006 0.228,0.012 0.361,0.012 0.577,0 0.868,-0.202 0.868,-0.671 m 4.983,-1.418 0,2.628 -0.677,0 0,-2.679 c 0,-0.798 -0.317,-1.089 -1.013,-1.089 -0.792,0 -0.982,0.43 -0.982,1 l 0,2.768 -0.69,0 0,-2.818 c 0,-0.786 0.285,-1.52 1.627,-1.52 1.121,0 1.735,0.57 1.735,1.71 M 93.622,-2.4 c 0,1.336 -1.869,1.019 -1.869,1.874 0,0.355 0.273,0.602 0.804,0.602 0.254,0 0.526,-0.044 0.773,-0.12 l 0.038,0.614 c -0.259,0.044 -0.519,0.076 -0.772,0.076 -0.994,0 -1.571,-0.513 -1.571,-1.248 0,-1.38 1.868,-1 1.868,-1.9 0,-0.462 -0.38,-0.658 -0.848,-0.658 -0.311,0 -0.646,0.069 -0.887,0.158 L 91.12,-3.654 c 0.246,-0.064 0.551,-0.101 0.861,-0.101 1.02,0 1.641,0.57 1.641,1.355 m 4.122,-1.292 -1.552,4.275 -0.766,0 -1.533,-4.275 0.697,0 0.33,0.943 1.729,0 0.329,-0.943 0.766,0 z m -1.279,1.494 -1.369,0 0.482,1.324 c 0.083,0.228 0.153,0.462 0.197,0.678 l 0.012,0 c 0.052,-0.235 0.109,-0.437 0.191,-0.659 l 0.487,-1.343 z m 3.971,-1.494 0,0.601 -1.469,0 0,3.674 -0.691,0 0,-4.275 2.16,0 z m 2.799,0 0,0.589 -1.564,0 0,1.33 1.488,0 0,0.564 -1.488,0 0,1.216 1.564,0 0,0.576 -2.255,0 0,-4.275 2.255,0 z m 5.757,0 -0.653,4.275 -0.829,0 -0.843,-2.495 c -0.101,-0.317 -0.171,-0.533 -0.234,-0.849 l -0.013,0 c -0.05,0.279 -0.133,0.563 -0.234,0.874 l -0.823,2.47 -0.823,0 -0.64,-4.275 0.703,0 0.272,2.21 c 0.044,0.405 0.089,0.741 0.114,1.109 l 0.013,0 c 0.05,-0.311 0.158,-0.678 0.272,-1.014 l 0.766,-2.305 0.716,0 0.804,2.483 c 0.108,0.316 0.172,0.594 0.222,0.836 l 0.013,0 c 0.032,-0.279 0.063,-0.589 0.133,-1.046 l 0.336,-2.273 0.728,0 z"
         style="fill:#231f20;fill-opacity:1;fill-rule:nonzero;stroke:none"
         id="path4676"
         inkscape:connector-curvature="0" />
    </g>
    <g
       id="g4678"
       transform="matrix(4.0740123,0,0,-4.0740123,-114.27649,-43.857598)">
      <path
         d="M 0,0 3.088,-4.633 5.156,-1.974 2.56,3.297 0,0 Z"
         style="fill:#2f7789;fill-opacity:1;fill-rule:nonzero;stroke:none"
         id="path4680"
         inkscape:connector-curvature="0" />
    </g>
    <g
       id="g4682"
       transform="matrix(4.0740123,0,0,-4.0740123,-174.12536,-39.915584)">
      <path
         d="m 0,0 -5.984,-7.36 0,-5.409 5.526,5.435 L 0,0 Z"
         style="fill:#797c58;fill-opacity:1;fill-rule:nonzero;stroke:none"
         id="path4684"
         inkscape:connector-curvature="0" />
    </g>
    <g
       id="g4686"
       transform="matrix(4.0740123,0,0,-4.0740123,-152.92909,-66.208445)">
      <path
         d="M 0,0 0.33,-7.947 6.88,-1.566 3.194,3.966 0,0 Z"
         style="fill:#26a594;fill-opacity:1;fill-rule:nonzero;stroke:none"
         id="path4688"
         inkscape:connector-curvature="0" />
    </g>
    <g
       id="g4690"
       transform="matrix(4.0740123,0,0,-4.0740123,-125.20339,-100.60492)">
      <path
         d="M 0,0 -3.612,-4.477 0.075,-10.009 3.362,-6.807 0,0 Z"
         style="fill:#83111f;fill-opacity:1;fill-rule:nonzero;stroke:none"
         id="path4692"
         inkscape:connector-curvature="0" />
    </g>
    <g
       id="g4694"
       transform="matrix(4.0740123,0,0,-4.0740123,-88.386953,-77.162242)">
      <path
         d="m 0,0 -1.489,3.027 -4.186,-4.08 1.88,-3.825 L 0,0 Z"
         style="fill:#489cbc;fill-opacity:1;fill-rule:nonzero;stroke:none"
         id="path4696"
         inkscape:connector-curvature="0" />
    </g>
    <g
       id="g4698"
       transform="matrix(4.0740123,0,0,-4.0740123,-114.27649,-43.857598)">
      <path
         d="M 0,0 2.56,3.297 0.68,7.122 -2.607,3.92 0,0 Z"
         style="fill:#261417;fill-opacity:1;fill-rule:nonzero;stroke:none"
         id="path4700"
         inkscape:connector-curvature="0" />
    </g>
    <g
       id="g4702"
       transform="matrix(4.0740123,0,0,-4.0740123,-156.85603,-147.09633)">
      <path
         d="M 0,0 -2.627,0 -4.239,-26.308 0.964,-19.854 0,0 Z"
         style="fill:#60bd8d;fill-opacity:1;fill-rule:nonzero;stroke:none"
         id="path4704"
         inkscape:connector-curvature="0" />
    </g>
    <g
       id="g4706"
       transform="matrix(4.0740123,0,0,-4.0740123,-174.12536,-39.915584)">
      <path
         d="M 0,0 -0.458,-7.334 5.533,-1.493 5.203,6.454 0,0 Z"
         style="fill:#0b4843;fill-opacity:1;fill-rule:nonzero;stroke:none"
         id="path4708"
         inkscape:connector-curvature="0" />
    </g>
    <g
       id="g4710"
       transform="matrix(4.0740123,0,0,-4.0740123,-158.89303,-180.96482)">
      <path
         d="m 0,0 -1.091,2.248 c 0,0 -2.331,-3.566 -2.331,-4.951 0,-2.199 1.033,-3.649 1.033,-3.649 l 3.2,0 0.566,3.451 -2.054,0 L 0,0 Z"
         style="fill:#83111f;fill-opacity:1;fill-rule:nonzero;stroke:none"
         id="path4712"
         inkscape:connector-curvature="0" />
    </g>
  </g>
</svg>
